# xmcd CD database file
#
# Track frame offsets:
#	150
#	14861
#	28406
#	41457
#	55297
#	68727
#	82445
#	96313
#	110468
#	124553
#	137388
#	151227
#	165047
#	179060
#	193963
#	207282
#
# Disc length: 2953 seconds
#
# Revision: 0
# Processed by: cddbd v1.4PL0 Copyright (c) Steve Scherf et al.
# Submitted via: CDex 1.40Release
#
DISCID=e50b8710
DTITLE=Various Artist - Robert Johnson Roots And Branches disc 1
DYEAR=1998
DGENRE=Blues
TTITLE0=The Mississippi Sheiks - Sitting On Top Of The World
TTITLE1=Skip James - Devil Got My Woman
TTITLE2=Charley Patton - Down The Dirt Road Blues
TTITLE3=Charley Patton - Screamin' and Hollerin' Blues
TTITLE4=Sleepy John Estes - The Girl I Love She Got Long Curly Hair
TTITLE5=Hambone Willie Newbern - Roll and Tumble Blues
TTITLE6=Koko Arnold - Sagefield Woman Blues
TTITLE7=Koko Arnold - Sissy Man Blues
TTITLE8=Son House - My Black Mama part 1
TTITLE9=Skip James - 22-20 Blues
TTITLE10=Scrapper Blackwell - Kokomo Blues
TTITLE11=Son House - Preachin Blues
TTITLE12=Charley Patton - Tom Rushen's Blues
TTITLE13=Peetie Wheatstraw - Six Weeks Old Blues
TTITLE14=Leroy Carr - When The Sun Goes Down
TTITLE15=Kokomo Arnold - Milkcow Blues
EXTD=YEAR: 1998 ID3G: 0
EXTT0=
EXTT1=
EXTT2=
EXTT3=
EXTT4=
EXTT5=
EXTT6=
EXTT7=
EXTT8=
EXTT9=
EXTT10=
EXTT11=
EXTT12=
EXTT13=
EXTT14=
EXTT15=
PLAYORDER=
